<svg width="24" height="24" viewBox="0 0 24 24" fill="none" xmlns="http://www.w3.org/2000/svg">
<rect width="23.4256" height="23.4256" rx="11.7128" fill="#BDAF74"/>
<g clip-path="url(#clip0_1559_187)">
<path fill-rule="evenodd" clip-rule="evenodd" d="M10.1727 7.87233C10.2472 7.76052 10.3727 7.69336 10.5071 7.69336H12.9185C13.0529 7.69336 13.1784 7.76052 13.2529 7.87233L13.9375 8.89909H15.33C15.6498 8.89909 15.9565 9.02612 16.1826 9.25224C16.4087 9.47836 16.5357 9.78504 16.5357 10.1048V14.5258C16.5357 14.8456 16.4087 15.1523 16.1826 15.3784C15.9565 15.6045 15.6498 15.7316 15.33 15.7316H8.09562C7.77584 15.7316 7.46916 15.6045 7.24304 15.3784C7.01692 15.1523 6.88989 14.8456 6.88989 14.5258V10.1048C6.88989 9.78504 7.01692 9.47836 7.24304 9.25224C7.46916 9.02612 7.77584 8.89909 8.09562 8.89909H9.48816L10.1727 7.87233ZM10.7222 8.49718L10.0377 9.52394C9.96313 9.63575 9.83764 9.70291 9.70326 9.70291H8.09562C7.98903 9.70291 7.8868 9.74525 7.81143 9.82062C7.73606 9.896 7.69371 9.99822 7.69371 10.1048V14.5258C7.69371 14.6324 7.73606 14.7346 7.81143 14.81C7.8868 14.8854 7.98903 14.9277 8.09562 14.9277H15.33C15.4366 14.9277 15.5388 14.8854 15.6142 14.81C15.6896 14.7346 15.7319 14.6324 15.7319 14.5258V10.1048C15.7319 9.99822 15.6896 9.896 15.6142 9.82062C15.5388 9.74525 15.4366 9.70291 15.33 9.70291H13.7224C13.588 9.70291 13.4625 9.63575 13.3879 9.52394L12.7034 8.49718H10.7222Z" fill="white"/>
<path fill-rule="evenodd" clip-rule="evenodd" d="M11.7128 10.9083C11.0469 10.9083 10.5071 11.4481 10.5071 12.114C10.5071 12.7799 11.0469 13.3198 11.7128 13.3198C12.3787 13.3198 12.9185 12.7799 12.9185 12.114C12.9185 11.4481 12.3787 10.9083 11.7128 10.9083ZM9.70325 12.114C9.70325 11.0042 10.603 10.1045 11.7128 10.1045C12.8226 10.1045 13.7223 11.0042 13.7223 12.114C13.7223 13.2239 12.8226 14.1236 11.7128 14.1236C10.603 14.1236 9.70325 13.2239 9.70325 12.114Z" fill="white"/>
</g>
<defs>
<clipPath id="clip0_1559_187">
<rect width="9.64583" height="9.64583" fill="white" transform="translate(6.88989 6.88965)"/>
</clipPath>
</defs>
</svg>
