<svg width="61" height="61" viewBox="0 0 61 61" fill="none" xmlns="http://www.w3.org/2000/svg">
<circle cx="30.5" cy="30.5" r="30.5" fill="#5F5013"/>
<path d="M47.2031 37.2517C47.2881 43.2342 40.4894 48.1816 32.0177 48.302C23.546 48.4224 16.6094 43.6702 16.5244 37.6878C16.4394 31.7053 23.2381 26.7579 31.7098 26.6375C40.1815 26.5171 47.1181 31.2692 47.2031 37.2517Z" fill="#FFF8E6"/>
<path d="M27.1955 20.8676C27.2387 23.9048 25.1371 26.3974 22.5014 26.4348C19.8658 26.4723 17.6942 24.0405 17.651 21.0032C17.6079 17.966 19.7095 15.4734 22.3451 15.436C24.9808 15.3985 27.1524 17.8303 27.1955 20.8676Z" fill="#FFF8E6"/>
<path d="M17.7553 28.336C17.7985 31.3732 15.6969 33.8658 13.0612 33.9033C10.4256 33.9407 8.25398 31.5089 8.21081 28.4716C8.16764 25.4344 10.2693 22.9418 12.9049 22.9044C15.5405 22.8669 17.7121 25.2987 17.7553 28.336Z" fill="#FFF8E6"/>
<path d="M53.1826 26.1653C53.2258 29.2025 51.1242 31.6951 48.4885 31.7326C45.8529 31.77 43.6813 29.3382 43.6381 26.3009C43.595 23.2637 45.6966 20.7711 48.3322 20.7337C50.9679 20.6962 53.1395 23.128 53.1826 26.1653Z" fill="#FFF8E6"/>
<path d="M41.143 18.6691C41.1862 21.7064 39.0845 24.1989 36.4489 24.2364C33.8133 24.2739 31.6417 21.842 31.5985 18.8048C31.5553 15.7675 33.6569 13.275 36.2926 13.2375C38.9282 13.2 41.0998 15.6319 41.143 18.6691Z" fill="#FFF8E6"/>
</svg>
