<svg width="311" height="279" viewBox="0 0 311 279" fill="none" xmlns="http://www.w3.org/2000/svg">
<mask id="mask0_317_514" style="mask-type:luminance" maskUnits="userSpaceOnUse" x="0" y="0" width="311" height="279">
<path d="M311 0H0V279H311V0Z" fill="white"/>
</mask>
<g mask="url(#mask0_317_514)">
<g filter="url(#filter0_d_317_514)">
<path fill-rule="evenodd" clip-rule="evenodd" d="M218.889 9.18233C218.547 11.3188 218.821 13.4714 218.416 15.6986C217.928 18.3832 216.287 20.9344 215.701 23.6365C215.496 24.5791 215.471 25.8162 215.346 26.9538C215.226 28.0568 214.881 29.3533 214.992 30.271C215.177 31.8005 216.351 33.5971 217 35.2471C217.54 36.6223 218.744 39.0251 218.889 40.3416C219.016 41.4921 218.664 43.0964 218.534 44.4883C218.406 45.8811 218.184 47.3084 218.062 48.6351C217.794 51.5598 217.874 54.6447 217.354 57.1654C216.981 58.9755 216.039 60.5772 215.701 62.2599C215.293 64.2872 215.401 66.6279 214.992 68.776C213.384 68.7813 211.831 68.8432 210.387 69.013C206.894 64.4856 202.902 59.6533 198.934 55.2697C197.777 53.9909 196.287 51.4609 194.802 50.8861C193.146 50.2448 190.641 50.896 189.607 49.2275C188.554 48.0724 187.451 46.9666 186.301 45.9102C186.266 45.6686 185.981 45.6781 185.946 45.4364C185.011 44.3997 184.027 43.4124 182.994 42.4745C182.407 40.1712 183.569 38.64 183.821 36.7877C184.094 36.3902 183.863 35.4863 183.939 34.8923C183.939 33.9048 183.939 32.9177 183.939 31.9303C183.487 28.7312 184.631 25.917 184.53 23.1629C184.421 20.2291 183.293 17.5251 183.113 14.5141C185.888 14.2002 184.899 9.49603 185.238 6.1022C185.436 4.12816 186.524 2.80767 186.772 1.48169C189.134 0.414197 192.108 -0.0363314 195.747 0.17848C196.26 0.101963 197.081 0.332989 197.399 0.0601534C198.214 0.205014 199.277 -0.130135 199.879 0.0601534C202.046 0.743985 200.717 5.00108 202.241 5.98375C203.279 6.65444 205.555 6.27212 207.082 6.33913C208.838 6.41685 210.458 6.48935 212.04 6.57605C214.16 7.6087 215.292 9.63272 218.889 9.18233Z" fill="#F2D8B2"/>
<path fill-rule="evenodd" clip-rule="evenodd" d="M213.94 103.449C218.026 100.405 224.759 100.018 230.227 98.3604C231.341 110.375 232.651 122.197 233.885 134.093C232.337 137.631 230.973 141.349 229.401 144.86C224.008 142.614 218.277 140.709 212.524 138.826C212.052 136.971 211.528 135.17 210.872 133.502C210.635 133.147 209.903 133.289 209.338 133.265C209.173 132.995 208.516 133.221 208.157 133.147C206.993 133.219 205.811 133.077 204.617 133.029C203.41 132.979 201.944 132.631 201.077 132.91C199.903 133.286 200.018 134.927 198.952 135.513C198.598 135.513 198.243 135.513 197.889 135.513C197.726 135.243 197.069 135.469 196.709 135.396C195.081 135.252 194.568 133.992 193.523 133.265C193.523 132.792 193.523 132.319 193.523 131.846C193.794 131.566 193.566 130.783 193.641 130.307C193.641 129.518 193.641 128.73 193.641 127.941C193.222 125.856 195.22 125.076 195.883 123.682C196.636 122.099 196.467 120.632 197.182 118.949C200.282 116.652 203.267 114.243 207.332 112.915C208.743 110.702 209.649 107.982 211.344 106.052C212.258 105.234 213.124 104.365 213.94 103.449Z" fill="#F2D8B2"/>
<path fill-rule="evenodd" clip-rule="evenodd" d="M120.931 186.804C123.972 187.233 127.085 187.361 130.496 187.159C131.834 187.08 133.485 187.316 134.628 187.041C135.068 187.048 135.375 186.922 135.691 186.804C137.226 188.436 138.754 190.181 140.296 192.011C141.736 193.72 143.339 195.841 145.373 196.865C147.188 197.779 149.506 197.579 151.986 198.166C152.365 199.719 152.609 201.408 153.167 202.783C154.757 203.162 156.929 202.957 158.598 203.256C159.587 205.106 160.42 207.11 161.314 209.055C160.318 211.731 159.497 215.06 159.07 218.761C158.591 222.914 158.613 226.301 159.543 229.414C157.72 230.27 156.275 231.503 153.167 231.07C152.458 231.07 151.75 231.07 151.041 231.07C150.031 230.353 149.124 229.553 148.089 228.703C147.233 227.998 145.785 227.208 145.256 226.219C144.421 224.662 144.306 222.396 143.838 220.536C143.362 218.638 142.803 216.834 142.304 214.974C139.351 213.909 136.741 212.499 133.566 211.659C131.716 211.659 129.866 211.659 128.017 211.659C126.874 211.737 125.418 211.502 124.474 211.777C122.899 211.777 121.325 211.777 119.75 211.777C118.451 211.855 116.838 211.62 115.736 211.895C114.621 212.868 114.542 214.879 113.728 216.158C111.785 217.613 109.115 216.834 106.762 217.578C104.537 218.28 102.826 220.841 100.504 220.773C100.791 219.009 100.999 217.165 101.33 215.447C102.463 214.7 103.129 213.349 104.518 212.723C106.601 211.792 109.286 211.817 111.721 211.067C112.314 208.947 113.636 207.189 114.082 205.031C114.501 203.01 114.029 200.995 114.437 198.758C114.586 197.934 115.222 197.046 115.618 196.155C117.175 192.638 119.05 189.377 120.931 186.804Z" fill="#F2D8B2"/>
<path fill-rule="evenodd" clip-rule="evenodd" d="M127.106 48.5848C128.897 48.8102 129.298 47.9916 130.175 47.0454C131.88 45.2043 133.366 42.9798 134.425 41.0059C137.894 43.8787 141.693 47.2281 145.287 50.3615C146.206 51.1626 148.534 52.5814 148.83 53.5588C149.033 54.2324 148.671 55.1672 148.83 55.6905C148.83 56.8353 148.83 57.9801 148.83 59.1248C148.906 59.6796 148.675 60.543 148.947 60.901C149.408 64.3242 147.505 65.3755 146.703 67.533C146.852 67.5815 146.945 67.6857 146.94 67.8881C145.726 70.1607 144.546 72.025 142.926 73.8095C142.209 74.5992 141.134 75.3234 140.801 76.1779C140.142 77.8651 140.358 79.7555 139.737 81.8625C139.466 82.1817 139.696 83.0045 139.62 83.5203C139.62 84.3886 139.62 85.2572 139.62 86.1256C139.62 86.915 139.62 87.7045 139.62 88.494C139.349 88.8131 139.578 89.6363 139.502 90.1518C139.502 91.0202 139.502 91.8886 139.502 92.757C139.502 93.7438 139.502 94.7308 139.502 95.7177C137.163 95.0963 136.094 95.8005 134.661 96.665C133.961 97.0878 133.094 97.5192 132.654 97.9677C131.046 99.606 130.448 102.46 129.821 104.6C127.561 105.53 125.333 106.492 122.855 107.205C122.151 109.183 121.334 111.048 120.141 112.534C119.887 112.754 119.275 112.615 118.841 112.652C118.092 112.73 117.033 112.497 116.48 112.771C115.379 112.771 114.276 112.771 113.175 112.771C111.915 112.849 110.341 112.613 109.279 112.889C108.527 112.806 108.265 113.215 107.98 113.599C107.497 113.984 107.064 114.418 106.681 114.902C106.238 115.248 105.844 115.642 105.501 116.087C105.501 116.125 105.501 116.166 105.501 116.205C105.018 116.589 104.585 117.023 104.202 117.507C103.759 118.999 103.647 120.82 103.376 122.481C101.644 121.407 100.135 119.996 98.4173 118.692C96.7534 117.429 94.6685 116.393 93.34 114.902C92.5929 114.063 92.3524 112.901 91.4516 112.179C89.1208 112.187 88.681 110.299 87.6733 108.982C90.2113 110.186 93.6849 110.452 97.4725 110.402C98.8263 108.806 100.866 107.006 102.196 105.073C103.495 103.182 104.42 101.094 104.084 97.7308C104.084 96.9807 104.084 96.2308 104.084 95.4807C104.084 93.7834 104.084 92.0859 104.084 90.3883C104.007 89.164 104.24 87.6259 103.966 86.5989C103.966 84.1516 103.966 81.7041 103.966 79.2566C104.514 78.3963 105.883 77.9724 106.209 77.0065C106.476 76.2153 106.356 74.8755 106.446 73.809C107.054 66.4757 107.63 58.2993 108.334 51.4268C111.052 51.5291 114.06 51.5568 116.481 51.6636C117.353 51.7022 118.37 51.9915 119.196 51.6636C120.906 50.985 120.699 47.4992 123.682 48.4661C123.847 48.7364 124.504 48.5103 124.862 48.5846C125.611 48.5848 126.358 48.5848 127.106 48.5848Z" fill="#F2D8B2"/>
<path fill-rule="evenodd" clip-rule="evenodd" d="M182.303 14.7402C182.518 17.6935 183.811 20.4877 183.839 23.4016C183.859 25.4898 182.894 27.4929 183.129 29.8086C182.857 30.2066 183.088 31.1116 183.012 31.7067C183.012 32.6954 183.012 33.6842 183.012 34.6731C183.439 38.0847 181.521 39.4493 182.184 42.7413C182.493 43.1429 182.853 43.4936 183.129 43.9278C184.105 45.0056 185.129 46.0338 186.202 47.0127C187.256 48.1694 188.359 49.2769 189.511 50.3347C190.497 51.5199 193.012 51.1689 194.71 51.6398C201.708 59.3257 208.609 67.1094 213.971 76.4377C211.797 80.2259 209.751 84.1441 207.708 88.0652C206.548 88.6799 205.582 89.4897 204.399 90.0823C203.69 90.1599 202.669 89.9259 202.154 90.2009C201.446 90.2009 200.737 90.2009 200.028 90.2009C199.2 90.2009 198.373 90.2009 197.546 90.2009C197.031 90.2775 196.211 90.0462 195.891 90.3195C195.183 90.3195 194.473 90.3195 193.765 90.3195C192.938 90.3195 192.11 90.3195 191.283 90.3195C190.692 90.3195 190.102 90.3195 189.511 90.3195C188.76 89.8481 187.842 89.5435 187.266 88.8958C186.255 85.2031 185.477 81.2784 184.43 77.6241C181.417 75.0923 178.16 72.7972 175.094 70.3865C174.073 69.5841 173.114 68.4869 172.022 67.895C170.403 67.0174 168.459 66.9112 166.704 65.9965C165.76 64.8486 164.93 63.5849 163.987 62.437C164.285 61.7484 164.859 61.3358 165.051 60.5387C165.323 60.0618 165.091 59.077 165.168 58.4029C165.092 57.8077 165.323 56.9027 165.051 56.5046C165.051 55.2785 165.051 54.0524 165.051 52.8263C165.051 51.6398 165.051 50.4534 165.051 49.267C164.973 48.7108 165.204 47.8461 164.932 47.4871C164.932 46.2611 164.932 45.0349 164.932 43.809C164.932 42.6227 164.932 41.4362 164.932 40.2497C164.932 39.696 164.932 39.1423 164.932 38.5886C166.428 35.8764 168.3 33.0793 169.895 30.4016C170.442 29.4844 171.249 28.414 171.549 27.5543C172.607 24.5145 172.447 21.291 173.557 17.9438C176.451 16.8538 179.362 15.7817 182.303 14.7402Z" fill="#F2D8B2"/>
<path fill-rule="evenodd" clip-rule="evenodd" d="M267.32 145.831C268.672 144.231 270.479 143.436 272.513 142.158C274.624 140.835 275.861 139.1 278.771 139.078C281.29 138.999 284.123 139.236 286.446 138.959C290.818 137.928 293.388 135.07 296.835 133.036C298.902 131.814 301.555 130.927 303.564 129.718C303.564 130.113 303.564 130.507 303.564 130.902C303.64 131.497 303.409 132.401 303.683 132.799C303.621 135.426 306.284 135.321 307.695 136.472C308.052 136.745 308.914 136.513 309.466 136.59C309.722 138.267 309.817 140.109 310.528 141.329C310.073 143.798 307.948 146.008 308.286 148.911C308.39 149.805 309.481 150.867 309.702 152.11C309.974 153.63 309.534 155.385 309.82 156.731C310.002 157.58 310.864 158.256 311 158.982C310.365 160.121 309.815 161.347 309.112 162.418C305.793 163.321 302.714 164.449 298.841 165.736C297.254 166.264 295.553 166.829 293.766 167.395C292.295 167.859 289.349 168.366 288.687 169.172C288.169 169.807 288.284 171.553 288.216 172.963C288.152 174.271 288.19 175.745 288.098 176.755C287.982 178.052 287.092 179.124 286.446 180.191C284.737 183.007 283.332 185.179 281.604 188.01C280.356 187.595 279.458 187.88 278.418 187.418C277.319 186.93 276.845 185.63 275.821 185.285C274.404 184.809 272.757 185.196 270.861 184.812C269.771 182.889 269.553 180.588 268.382 178.887C267.424 177.495 265.59 177.008 264.724 175.569C265.942 172.119 268.616 167.223 266.376 163.485C265.474 163.324 264.513 163.221 263.425 163.247C262.646 162.568 262.129 161.625 261.417 160.878C262.371 155.872 262.507 150.045 265.785 147.372C266.345 146.908 266.857 146.393 267.32 145.831Z" fill="#F2D8B2"/>
<path fill-rule="evenodd" clip-rule="evenodd" d="M22.9221 95.9482C26.2726 97.8212 29.7448 100.09 32.7278 102.35C33.7329 103.11 34.9624 103.789 35.8004 104.601C36.8001 105.571 37.6167 107.014 38.5175 108.158C39.4437 109.333 40.271 110.671 41.2346 111.714C42.7849 113.39 44.8043 114.599 46.3159 116.219C48.2177 118.256 49.3644 121.03 51.3959 123.094C52.9021 124.623 55.4842 125.494 57.541 126.65C58.3509 127.106 59.1782 127.72 60.0215 128.191C60.9357 128.702 62.0369 129.042 62.7386 129.613C63.5659 130.285 64.2475 131.564 65.1015 132.577C65.9622 133.596 67.0394 134.487 67.5834 135.421C68.4106 136.843 68.7568 138.507 69.5921 139.807C70.9139 141.867 73.2394 143.426 75.0276 145.024C76.9347 146.727 78.9729 148.248 80.8172 150.002C81.3492 151.206 81.4173 152.877 81.5256 154.506C81.5256 154.585 81.5256 154.664 81.5256 154.743C80.1076 154.743 78.6895 154.743 77.2715 154.743C75.8736 154.329 74.6854 153.705 72.8999 153.677C71.9924 154.781 71.3723 156.173 70.537 157.351C70.4969 159.84 70.1842 162.055 70.1828 164.582C68.8797 166.516 67.7424 168.614 66.6385 170.746C64.591 171.151 62.7733 172.888 60.7312 172.999C59.9387 173.042 58.4485 172.587 57.541 172.407C55.0124 171.901 52.7618 171.229 51.6324 169.562C51.1647 168.87 50.8586 167.671 50.451 166.717C49.5689 164.653 48.771 162.821 47.9705 160.908C47.5321 159.861 47.2862 158.652 46.789 157.945C46.3186 157.276 44.9286 156.156 44.3071 156.047C42.8758 155.799 40.9165 156.729 39.5813 156.522C38.8008 157.754 38.1486 159.115 37.455 160.433C35.4302 160.292 33.5498 160.221 31.5464 160.078C29.9533 159.964 27.0317 159.395 25.5215 159.723C24.3334 159.98 23.0343 162.14 22.2124 163.041C21.0871 164.275 20.0646 165.343 18.9046 166.36C18.2724 165.117 17.667 163.971 17.1324 162.568C16.694 161.417 16.2971 159.444 15.4778 158.655C14.8818 158.081 13.2873 157.738 12.2876 157.351C8.85554 156.023 5.49563 154.715 2.36291 153.439C2.2453 150.199 1.03043 148.059 0 145.734C0.95826 144.478 2.80128 144.687 3.66331 143.363C4.05624 142.759 4.04954 141.499 4.25403 140.519C4.84876 137.668 5.67872 134.546 6.38038 132.102C7.67944 131.497 8.98653 130.968 10.5155 130.325C11.6328 129.854 13.7751 129.361 14.414 128.309C15.1491 127.101 15.0208 125.061 15.2413 123.331C15.4645 121.586 15.677 119.85 15.832 118.115C16.7395 117.269 17.6737 116.339 18.9046 115.271C20.4348 113.941 22.62 113.034 21.9758 109.818C22.2498 109.42 22.0172 108.515 22.0948 107.92C22.5371 104.779 19.9858 101.98 20.6768 99.0302C20.9681 97.7849 22.4289 97.2561 22.9221 95.9482Z" fill="#F2D8B2"/>
<path fill-rule="evenodd" clip-rule="evenodd" d="M87.8832 221.978C90.2541 221.751 91.2097 220.106 93.0714 219.367C95.1243 220.307 97.264 223.801 99.9089 222.096C100.366 223.217 101.068 224.096 101.559 225.182C102.59 225.647 103.662 226.071 104.625 226.606C104.599 227.488 104.436 228.233 104.508 229.215C104.313 229.381 104.313 230.354 104.508 230.52C104.806 235.228 105.501 240.563 106.041 245.116C106.238 246.789 106.201 248.716 106.63 249.981C107.091 251.346 108.718 252.452 109.105 253.776C110.231 254.068 111.187 254.53 112.289 254.844C112.572 256.338 113.077 257.61 113.468 258.998C113.325 259.605 112.723 259.75 112.406 260.184C108.547 261.005 107.567 264.728 106.511 268.372C104.604 268.529 103.042 270.447 101.088 270.745C98.7315 271.103 96.434 270.137 93.6608 270.389C92.021 264.014 89.8585 256.359 88.0008 249.505C87.529 247.762 87.0987 243.62 85.8785 242.742C85.1621 242.227 83.6586 242.312 82.6963 242.267C82.0134 234.175 78.6681 228.76 76.4469 222.215C77.0363 222.215 77.6257 222.215 78.2151 222.215C78.9247 222.41 80.4537 222.41 81.1634 222.215C81.8303 222.215 82.4985 222.215 83.1667 222.215C83.6024 222.138 84.3415 222.369 84.5821 222.096C85.2102 222.096 85.8397 222.096 86.4679 222.096C86.9036 222.019 87.6426 222.25 87.8832 221.978Z" fill="#F2D8B2"/>
<path fill-rule="evenodd" clip-rule="evenodd" d="M92.5007 216.717C92.5756 217.115 92.3484 217.816 92.6183 218.019C92.6183 218.256 92.6183 218.492 92.6183 218.729C90.9598 219.516 89.9895 220.99 87.7709 221.215C87.3339 221.292 86.5935 221.061 86.3529 221.335C85.7221 221.335 85.0926 221.335 84.4618 221.335C84.0247 221.41 83.2843 221.18 83.0424 221.452C82.3729 221.452 81.7033 221.452 81.0337 221.452C80.1262 221.452 79.2201 221.452 78.3139 221.452C77.5882 221.391 76.6032 221.588 76.0686 221.335C75.5888 219.35 76.4228 217.111 75.5955 215.531C75.2681 214.91 73.7819 214.212 73.2313 213.873C72.3652 213.342 71.2827 212.479 70.5116 212.453C69.846 212.431 68.7327 213.099 68.1473 213.4C67.4777 213.746 66.458 214.165 65.902 214.583C65.33 215.018 64.0176 216.719 63.7743 217.427C63.2397 218.973 63.8839 221.365 62.5915 221.926C61.9514 222.468 61.3606 223.061 60.818 223.702C59.9814 224.443 59.1929 225.231 58.4538 226.072C58.1959 226.484 57.9219 226.881 57.5076 227.137C56.8674 227.68 56.2766 228.272 55.7354 228.913C54.8974 229.652 54.1089 230.443 53.3698 231.28C52.755 231.937 52.4196 232.832 51.5976 233.057C50.1569 233.453 47.7699 233.265 46.396 233.057C45.0261 232.851 43.9476 231.913 42.73 231.873C40.2789 231.792 38.067 233.163 35.8739 233.293C34.6537 233.367 33.5791 233.036 32.2092 232.938C33.6099 230.069 35.0225 226.768 36.4646 223.702C36.9658 222.641 37.8813 221.478 37.8839 220.505C37.8866 219.213 36.6223 217.442 35.8739 215.768C35.3874 214.681 33.8438 211.981 33.8638 211.032C33.8745 210.538 34.536 209.476 34.9276 208.664C37.0152 204.347 39.3233 200.229 40.0116 195.165C39.9435 194.405 39.2071 194.312 38.9478 193.744C40.736 193.925 42.3812 194.252 44.0304 194.572C44.5677 195.851 44.839 197.394 45.6863 198.362C45.8133 198.558 46.7408 198.558 46.8678 198.362C47.6951 198.362 48.5237 198.362 49.351 198.362C50.2972 198.284 51.5562 198.519 52.306 198.244C53.6371 197.725 54.8386 196.246 56.2072 195.047C56.7364 194.583 57.4354 194.122 58.0983 193.507C59.1287 192.551 59.5858 191.517 61.2911 191.849C61.493 192.12 62.1933 191.893 62.5915 191.969C63.5765 191.969 64.5615 191.969 65.5465 191.969C66.053 193.749 66.744 195.347 67.2011 197.177C68.3772 197.486 69.4223 198.563 70.8657 198.717C72.694 198.913 74.7081 198.244 76.8959 198.481C77.2541 198.406 77.9143 198.633 78.0774 198.362C78.9742 197.838 79.6264 196.164 80.2051 194.927C80.7905 193.681 81.1072 192.36 81.861 191.494C82.9716 191.987 83.9004 192.724 85.0525 193.389C85.9399 193.9 87.6787 194.401 88.244 195.284C88.5755 195.801 88.7345 196.943 88.9537 197.77C89.654 200.406 90.1739 203.187 90.4907 206.177C91.3099 207.291 92.6491 207.883 92.2642 210.204C92.339 210.601 92.1118 211.304 92.3818 211.505C92.3818 212.178 92.3818 212.848 92.3818 213.518C92.4566 213.919 92.2294 214.62 92.5007 214.821C92.5007 215.453 92.5007 216.084 92.5007 216.717Z" fill="#F2D8B2"/>
<path fill-rule="evenodd" clip-rule="evenodd" d="M160.246 242.07C159.977 243.543 159.652 245.166 159.274 246.916C158.939 248.473 158.798 250.305 158.206 251.83C157.628 253.317 156.652 254.865 155.794 256.667C155.019 258.292 154.512 260.508 153.447 261.602C152.671 262.395 151.523 263.029 150.596 263.719C149.656 264.418 148.648 265.15 147.649 265.902C146.067 267.092 143.428 269.489 141.754 270.269C140.439 270.883 138.757 270.257 137.27 270.638C135.601 269.97 133.869 267.171 132.26 266.906C130.786 266.662 129.523 268.207 127.796 268.555C128.645 266.359 125.311 265.322 123.983 263.852C122.919 263.945 121.811 264.275 120.687 264.693C119.639 263.933 117.732 263.89 116.662 263.017C115.633 262.178 114.55 260.63 113.423 259.354C112.365 258.158 111.256 256.905 110.185 255.693C106.857 251.926 104.073 248.441 101.622 244.922C100.526 245.024 99.4037 245.28 98.2877 245.499C97.3348 244.984 96.3432 244.678 95.413 244.035C97.3896 242.269 97.4765 239.148 98.8157 237.506C100.544 235.386 103.245 234.495 103.905 231.969C103.612 230.609 103.201 229.227 102.953 227.875C104.12 227.067 105.288 226.26 106.455 225.452C107.318 224.759 108.619 224.148 109.208 223.403C110.505 222.505 111.801 221.609 113.097 220.711C114.686 219.612 116.274 218.513 117.863 217.413C120.532 216.762 123.208 216.061 125.831 215.642C128.72 218.134 131.606 220.612 134.476 223.194C137.158 223.39 139.82 223.695 142.516 223.819C143.192 223.685 143.997 222.843 144.723 222.436C145.039 222.125 145.778 221.892 145.823 221.531C147.936 220.473 147.815 218.548 148.84 217.571C150.36 220.443 151.964 221.357 153.9 222.42C157.371 224.325 161.229 226.649 164.408 227.673C163.806 228.357 162.974 228.999 162.507 229.708C161.684 233.815 160.93 237.935 160.246 242.07Z" fill="#F2D8B2"/>
<path fill-rule="evenodd" clip-rule="evenodd" d="M219.985 176.639C220.532 173.194 221.684 170.359 221.755 166.436C223.837 163.623 226.062 161.264 227.419 157.659C228.794 154.002 228.894 149.68 230.014 145.558C230.532 143.666 231.623 141.838 232.376 139.982C233.174 138.018 233.732 136.009 234.736 134.407C237.817 133.843 240.986 134.578 243.704 133.814C246.151 133.126 248.251 130.591 251.847 131.323C252.705 131.13 252.169 132.342 252.319 132.865C251.882 134.906 249.425 136.474 249.249 138.559C249.145 139.816 250.227 141.368 250.547 142.71C251.031 144.739 250.489 147.109 251.847 148.406C252.356 148.406 252.868 148.406 253.38 148.406C253.777 148.679 254.675 148.447 255.267 148.524C255.935 148.524 256.605 148.524 257.273 148.524C256.645 150.075 256.254 151.515 255.976 153.269C255.714 154.916 255.667 156.924 255.15 158.608C254.666 160.185 253.377 162.22 252.437 164.064C251.502 165.889 250.1 167.418 249.012 168.809C247.896 170.239 246.626 171.688 245.356 173.317C244.265 174.716 242.911 177.217 241.698 177.825C240.066 178.641 237.9 178.671 235.797 178.774C235.248 178.774 234.696 178.774 234.145 178.774C233.358 178.774 232.572 178.774 231.787 178.774C231.428 178.849 230.769 178.621 230.604 178.892C226.245 178.967 222.745 178.174 219.985 176.639Z" fill="#F2D8B2"/>
<path fill-rule="evenodd" clip-rule="evenodd" d="M182.43 180.007C183.22 179.177 184.122 178.548 185.028 177.759C185.873 177.023 186.644 175.881 187.625 175.51C188.368 175.229 189.626 175.202 190.577 175.036C192.967 174.622 194.737 174.523 197.426 174.681C201.202 174.903 203.58 175.432 206.163 176.576C212.408 179.337 217.405 184.332 224.702 185.097C224.958 185.708 224.755 186.78 224.821 187.583C224.821 188.372 224.821 189.161 224.821 189.951C224.896 190.426 224.667 191.209 224.938 191.489C224.938 192.159 224.938 192.83 224.938 193.5C224.938 194.29 224.938 195.079 224.938 195.868C225.013 196.305 224.786 197.046 225.056 197.289C224.791 199.587 225.651 200.38 226.355 201.786C226.826 202.724 227.117 203.816 227.535 204.39C228.036 205.075 229.257 205.82 230.135 206.52C231.058 207.259 231.887 208.098 232.85 208.651C233.797 209.195 235.022 209.619 236.156 210.19C237.251 210.74 238.333 211.55 239.343 211.846C242.226 212.689 245.894 212.662 248.672 213.502C249.278 214.279 250.074 214.861 250.678 215.636C251.009 216.646 251.21 217.786 251.625 218.712C253.889 220.387 256.508 221.707 258.709 223.445C258.916 224.945 259.195 226.344 259.417 227.708C259.65 229.127 259.664 230.715 260.125 231.967C260.385 232.665 261.161 233.586 261.662 234.336C263.905 237.694 266.166 240.913 267.564 244.87C266.256 245.334 264.2 244.724 262.842 245.343C261.673 245.877 261.423 247.934 260.48 249.13C259.994 249.745 258.715 250.768 257.881 251.024C256.526 251.441 254.918 251.079 253.631 251.379C252.624 251.616 251.958 252.501 251.035 252.68C250.006 252.881 248.898 252.454 247.49 252.562C246.322 251.545 245.833 250.119 244.539 249.012C243.525 248.144 242.068 247.746 241.117 246.882C240.5 246.322 238.958 244.151 238.635 243.211C238.635 242.581 238.635 241.95 238.635 241.318C238.561 240.959 238.786 240.298 238.517 240.134C238.609 239.096 238.345 238.414 238.398 237.413C237.362 236.739 236.606 235.639 235.33 235.164C231.801 233.856 227.367 235.287 224.465 236.585C223.395 238.312 222.453 240.168 221.16 241.673C217.306 241.756 214.483 242.871 211.595 243.921C208.584 239.761 208.021 233.143 206.637 227.353C205.465 226.079 204.244 224.855 202.976 223.681C201.376 222.92 199.438 222.494 198.253 221.315C197.712 220.674 197.121 220.082 196.482 219.54C196.439 219.384 196.274 219.353 196.245 219.185C195.743 218.584 195.192 218.03 194.592 217.529C192.885 215.735 192.986 212.035 192.702 208.414C192.559 206.571 192.713 204.426 192.231 202.969C191.711 201.401 189.179 200.362 188.57 198.709C188.096 197.42 188.11 195.608 187.862 194.093C187.596 192.47 187.45 190.558 187.036 189.239C186.528 187.632 185.393 186.177 184.674 184.742C183.858 183.116 183.165 181.559 182.43 180.007Z" fill="#F2D8B2"/>
<path fill-rule="evenodd" clip-rule="evenodd" d="M161.207 131.8C157.987 133.858 154.242 135.391 149.994 136.417C148.479 135.056 146.865 133.794 145.508 132.274C145.125 131.79 144.692 131.356 144.211 130.971C143.15 129.866 142.059 127.943 142.086 126.234C142.1 125.324 142.674 123.996 143.031 122.801C143.739 120.423 144.481 118.327 145.154 116.053C145.506 114.868 146.054 113.547 146.099 112.5C146.166 110.944 145.617 109.285 145.273 107.882C144.932 106.491 144.503 105.159 144.092 103.62C142.81 102.972 141.297 102.557 140.197 101.726C140.197 101.568 140.197 101.41 140.197 101.252C140.47 100.933 140.239 100.11 140.315 99.5944C140.315 98.7262 140.315 97.8577 140.315 96.9896C140.315 96.2002 140.315 95.4109 140.315 94.6216C140.588 94.3024 140.358 93.4795 140.434 92.9641C140.434 92.0957 140.434 91.2275 140.434 90.359C140.434 89.5697 140.434 88.7804 140.434 87.991C140.705 87.6719 140.475 86.8489 140.551 86.3332C140.551 85.4651 140.551 84.5966 140.551 83.7286C140.765 80.7319 140.721 78.3611 141.614 76.3875C142.373 74.7096 144.409 73.6084 145.508 72.0065C146.298 70.8564 146.571 69.7233 147.397 68.5729C150.27 68.2981 152.664 67.5416 155.541 67.2705C156.545 68.3951 157.898 69.1692 159.201 69.9936C160.838 73.9621 161.209 78.1197 162.387 82.3078C163.578 86.5471 166.338 90.249 166.4 95.4504C165.724 96.8241 165.153 98.3041 164.512 99.713C163.269 100.163 162.029 100.618 160.853 101.134C160.664 102.727 160.179 104.634 160.381 106.225C162.705 108.32 166.859 107.846 170.414 108.83C172.225 109.331 173.572 110.339 175.134 110.725C177.769 115.975 179.714 121.917 183.396 126.116C186.506 126.352 189.703 126.5 192.721 126.827C192.721 127.104 192.721 127.38 192.721 127.656C192.447 128.211 192.681 129.274 192.604 130.024C192.604 131.051 192.604 132.077 192.604 133.102C191.58 133.102 190.557 133.102 189.534 133.102C189.098 133.179 188.359 132.949 188.118 133.221C187.37 133.221 186.623 133.221 185.876 133.221C185.439 133.296 184.7 133.067 184.459 133.339C183.751 133.339 183.042 133.339 182.334 133.339C181.86 133.416 181.079 133.185 180.8 133.457C177.795 133.681 175.339 134.453 172.42 134.76C170.453 134.76 168.485 134.76 166.518 134.76C165.347 133.843 164.561 132.539 163.213 131.8C162.816 131.603 161.604 131.603 161.207 131.8Z" fill="#F2D8B2"/>
<path fill-rule="evenodd" clip-rule="evenodd" d="M192.47 141.481C191.56 143.254 190.78 145.159 189.276 146.337C188.595 146.919 187.965 147.551 187.383 148.232C187.287 148.255 187.264 148.351 187.147 148.351C186.603 148.873 185.954 149.291 185.608 150.009C184.651 152.723 183.328 155.07 182.178 157.591C180.305 156.861 179.088 155.474 177.091 154.867C176.85 154.595 176.11 154.824 175.672 154.747C174.962 154.747 174.252 154.747 173.543 154.747C173.301 154.477 172.56 154.705 172.123 154.63C167.905 155.261 167.409 152.164 165.144 150.838C164.589 150.564 163.528 150.798 162.778 150.721C162.224 150.797 161.362 150.565 161.004 150.838C160.215 150.838 159.427 150.838 158.638 150.838C158.005 150.916 157.064 150.683 156.627 150.956C153.427 151.228 150.169 151.439 147.045 151.786C146.332 148.633 145.321 145.773 144.207 143.021C146.378 141.287 148.819 139.821 150.121 137.215C153.158 136.438 155.949 135.72 158.52 134.372C160.088 133.55 160.678 132.418 163.133 132.714C164.07 133.75 165.056 134.738 166.09 135.676C171.81 136.426 176.095 134.72 181.114 134.373C181.551 134.297 182.291 134.526 182.533 134.254C183.243 134.254 183.952 134.254 184.662 134.254C185.138 134.178 185.92 134.408 186.199 134.136C186.91 134.136 187.62 134.136 188.329 134.136C188.805 134.06 189.587 134.29 189.866 134.017C190.576 134.017 191.286 134.017 191.995 134.017C192.193 134.017 192.39 134.017 192.587 134.017C192.587 134.688 192.587 135.359 192.587 136.031C192.587 136.742 192.587 137.453 192.587 138.163C192.316 138.405 192.545 139.148 192.47 139.585C192.47 140.216 192.47 140.848 192.47 141.481Z" fill="#F2D8B2"/>
<path fill-rule="evenodd" clip-rule="evenodd" d="M255.766 82.5479C256.867 84.4057 260.095 84.1309 262.147 85.0362C261.607 87.8953 264.818 88.7877 265.22 90.8427C265.638 92.9889 264.119 94.3755 263.92 96.5304C262.9 97.5209 261.669 98.3009 260.846 99.4927C260.846 99.5718 260.846 99.6507 260.846 99.7297C260.651 100.64 260.651 102.375 260.846 103.284C261.018 104.219 261.658 104.683 261.912 105.537C261.912 106.326 261.912 107.116 261.912 107.906C259.405 109.667 261.174 112.694 260.374 115.608C259.965 117.097 256.654 119.094 255.885 120.466C255.516 121.124 255.562 121.975 255.294 122.482C254.479 124.016 251.624 124.955 251.394 126.629C251.274 127.491 252.024 128.092 252.34 128.761C252.34 129.315 252.34 129.868 252.34 130.42C252.168 130.486 251.728 130.282 251.75 130.539C247.874 129.852 246.099 132.496 243.24 133.146C240.45 133.78 237.883 133.083 234.613 133.738C233.505 118.811 230.791 105.499 230.951 89.3013C233.742 88.0616 236.396 86.5791 239.221 85.154C240.649 84.4351 241.702 83.7459 243.831 83.8505C244.228 83.7755 244.928 84.0034 245.131 83.7321C245.762 83.7321 246.39 83.7321 247.021 83.7321C247.421 83.657 248.12 83.8847 248.32 83.6136C248.951 83.6136 249.582 83.6136 250.211 83.6136C250.611 83.5386 251.31 83.7662 251.513 83.4951C253.431 83.6821 254.467 82.9827 255.766 82.5479Z" fill="#F2D8B2"/>
<path fill-rule="evenodd" clip-rule="evenodd" d="M86.2822 108.545C87.8485 109.976 87.8365 112.991 91.0106 112.812C92.4219 115.989 95.1698 117.371 97.8695 119.449C99.6082 120.788 101.502 122 103.071 123.359C106.067 125.955 108.333 129.499 110.992 131.893C112.314 133.081 113.955 134.013 115.249 135.33C115.792 135.972 116.382 136.564 117.023 137.107C117.142 137.107 117.164 137.203 117.259 137.226C117.841 137.907 118.471 138.539 119.152 139.122C119.693 139.764 120.284 140.357 120.925 140.899C121.043 140.899 121.065 140.996 121.16 141.019C121.703 141.66 122.294 142.253 122.934 142.795C123.455 143.341 123.872 143.989 124.59 144.337C127.698 144.735 132.426 145.15 135.941 145.522C137.281 145.665 138.765 146.087 139.724 145.878C141.246 145.545 141.924 143.595 143.508 143.389C143.881 144.792 144.688 146.093 145.162 147.537C145.545 148.697 146.369 151.192 146.345 152.278C146.32 153.369 145.166 156.841 144.807 157.729C143.617 160.67 141.654 162.871 139.842 165.077C137.403 168.046 134.449 170.866 131.801 173.136C131.113 172.553 130.612 171.802 129.91 171.24C129.199 170.67 128.491 170.137 127.781 169.581C126.401 168.499 125.027 167.265 123.525 166.38C118.811 163.601 113.734 161.763 108.628 159.862C106.237 158.973 103.77 157.651 101.298 156.425C98.9012 155.238 96.1828 154.24 94.0845 152.87C92.4995 151.835 90.9385 150.096 89.3561 148.721C85.3279 145.224 81.416 141.947 77.5322 138.411C76.7544 137.703 75.6571 136.934 75.1679 136.277C74.2457 135.042 74.0052 133.304 73.2755 132.011C72.6112 130.834 71.4218 129.607 70.4381 128.455C68.821 126.565 67.5366 124.619 65.3541 123.596C65.3541 123.558 65.3541 123.517 65.3541 123.479C67.3121 122.83 69.2513 119.886 71.2654 119.449C73.4265 118.98 75.6771 119.639 78.2418 119.212C79.0624 118.436 80.01 117.527 80.9603 116.486C81.6846 115.693 83.1788 114.398 83.4435 113.523C83.6105 112.968 83.406 112.357 83.5624 111.864C84.0275 110.389 85.4829 109.827 86.2822 108.545Z" fill="#F2D8B2"/>
<path fill-rule="evenodd" clip-rule="evenodd" d="M247.149 42.6058C247.029 43.681 246.285 43.9359 246.087 44.9761C245.902 45.936 246.148 49.3627 246.441 50.4282C246.648 51.1884 248.043 53.8986 248.566 54.2211C249.975 55.0912 252.358 54.5536 254.116 54.932C256.032 55.344 257.642 56.2514 259.311 56.7097C259.958 59.3704 259.368 61.6311 260.02 63.9398C260.525 65.7278 262.333 66.9218 261.674 69.629C260.925 70.6931 260.421 72.0068 259.548 72.9476C258.464 73.3417 257.483 73.069 256.596 73.5403C255.859 73.9316 254.711 75.7691 254.588 76.859C254.412 78.4291 255.126 79.8437 256.005 80.7703C255.838 81.0753 255.623 81.3359 255.651 81.837C254.263 82.1812 253.245 82.8984 251.283 82.6668C250.885 82.7417 250.186 82.5139 249.983 82.7853C249.355 82.7853 248.724 82.7853 248.093 82.7853C247.697 82.8602 246.998 82.6324 246.795 82.9037C246.164 82.9037 245.536 82.9037 244.905 82.9037C244.507 82.9786 243.808 82.751 243.608 83.0222C240.725 83.0689 238.457 84.7712 236.285 85.8669C234.274 86.8823 232.38 87.6495 230.616 88.7115C227.884 88.017 225.02 87.4547 222.351 86.6966C218.308 81.3514 214.119 75.5207 210.897 69.7476C212.466 69.6237 214.225 69.6904 215.62 69.3921C216.366 67.1574 216.003 64.5634 216.446 62.3991C216.78 60.7747 217.851 59.0949 218.218 57.3025C218.748 54.7263 218.652 51.4921 218.927 48.5315C219.052 47.1728 219.268 45.7087 219.399 44.2648C219.526 42.8722 219.808 41.2447 219.635 40.1163C219.389 38.5112 218.388 36.7949 217.745 35.1383C217.135 33.562 216.039 31.6914 215.857 30.1603C215.753 29.2805 216.088 28.164 216.211 27.0785C216.325 26.0713 216.254 24.939 216.446 23.9969C216.953 21.534 218.573 18.9375 219.163 16.1742C219.675 13.7747 219.26 11.0288 219.872 8.9442C221.231 6.77169 223.588 6.91695 226.13 5.50708C226.966 5.04329 228.25 4.05098 228.964 3.37371C229.703 2.67433 230.298 1.38198 230.973 1.12174C231.736 0.826927 233.405 0.711953 234.278 0.884686C235.003 1.02821 235.817 2.02923 236.639 2.66268C238.509 4.10391 239.735 4.97883 241.483 6.33685C242.29 6.9648 243.104 7.9157 243.843 8.23329C245.834 9.09026 247.522 8.63183 249.864 9.5369C250.882 13.1953 249.392 14.1714 247.975 16.2927C247.215 17.4344 245.989 18.8196 245.968 19.9668C245.949 21.0117 247.251 23.165 247.739 23.8782C248.53 25.0296 250.658 26.557 251.047 27.908C251.582 29.7789 250.936 31.4829 251.401 34.0714C250.622 35.1961 247.701 35.6841 247.149 36.916C246.722 37.8692 247.218 39.1465 247.03 40.7087C247.109 41.3042 246.877 42.208 247.149 42.6058Z" fill="#F2D8B2"/>
<path fill-rule="evenodd" clip-rule="evenodd" d="M181.726 180.64C182.868 183.565 185.35 186.244 186.334 189.528C186.756 190.937 186.898 192.715 187.161 194.268C187.435 195.885 187.307 197.804 187.87 199.127C188.566 200.758 191.04 201.754 191.533 203.275C192.03 204.804 191.743 207.056 191.887 208.963C192.189 212.924 192.368 216.687 194.488 218.68C194.989 219.282 195.541 219.836 196.141 220.339C196.684 220.981 197.274 221.573 197.913 222.116C199.131 223.146 201.022 223.503 202.404 224.37C203.536 225.601 204.719 226.789 205.95 227.924C207.414 233.841 207.977 240.662 211.266 244.752C214.238 243.86 217.784 242.521 221.783 242.262C222.372 241.494 222.928 240.751 223.555 239.774C224.058 238.992 224.376 237.753 225.21 237.167C227.081 235.853 232.409 234.711 235.253 235.865C236.137 236.223 236.595 237.213 237.38 237.522C237.659 237.717 237.638 238.215 237.616 238.708C237.692 239.067 237.465 239.729 237.734 239.893C237.734 240.406 237.734 240.918 237.734 241.433C237.813 242.028 237.581 242.931 237.853 243.329C237.853 243.487 237.853 243.646 237.853 243.802C238.696 245.091 239.764 246.152 240.57 247.478C243.149 248.761 245.203 250.572 246.715 252.928C245.42 253.729 242.54 253.594 241.754 254.825C241.154 255.762 241.81 256.901 241.635 258.143C241.448 259.454 240.275 260.642 240.333 261.816C238.85 262.224 236.591 261.854 235.726 262.882C235.044 264.83 234.977 266.712 233.245 267.624C232.161 268.195 229.883 268.464 228.4 268.809C226.998 269.133 224.353 269.337 223.674 270.111C222.864 271.036 222.98 273.272 222.729 274.614C222.412 276.289 222.06 277.656 221.665 279C220.09 279 218.514 279 216.938 279C214.988 278.862 213.435 278.327 211.503 278.17C209.141 276.675 206.384 274.722 203.822 273.074C202.901 272.482 200.892 271.924 201.222 270.586C201.419 270.147 201.419 268.892 201.222 268.452C200.613 264.519 199.425 261.172 198.505 257.551C198.505 257.114 198.505 256.681 198.505 256.247C198.505 255.852 198.505 255.456 198.505 255.062C198.505 253.678 198.505 252.298 198.505 250.914C198.778 250.478 198.547 249.532 198.623 248.899C198.545 248.03 198.779 246.848 198.505 246.174C198.668 244.058 196.566 244.363 194.96 244.039C193.534 243.752 192.506 243.156 191.296 243.329C190.196 243.487 188.593 244.949 187.398 245.701C186.117 246.503 184.471 247.212 183.498 248.07C181.814 249.556 180.804 251.888 179.48 252.928C178.366 253.125 176.46 253.125 175.345 252.928C174.01 251.716 175.074 249.48 174.755 247.715C174.581 246.755 173.049 245.115 172.39 244.871C171.869 244.674 170.32 244.473 169.318 244.871C168.33 245.263 168.341 246.449 167.428 247.123C164.527 243.475 162.843 238.607 160.575 234.324C160.496 232.744 160.731 230.848 160.457 229.465C159.345 225.857 159.488 222.491 160.101 218.207C160.43 215.917 160.7 213.588 161.165 211.807C161.418 210.842 162.149 209.886 162.11 208.963C162.063 207.816 161.115 206.694 160.692 205.763C160.168 204.607 159.817 203.622 159.274 202.563C157.602 202.306 155.747 202.229 153.839 202.208C153.47 200.919 153.148 199.583 152.894 198.178C157.593 198.058 161.384 198.48 164.71 197.112C166.26 196.475 167.865 194.548 169.2 193.319C173.672 189.203 177.993 184.916 181.726 180.64Z" fill="#F2D8B2"/>
<path fill-rule="evenodd" clip-rule="evenodd" d="M145.146 133.144C146.421 134.555 148.065 135.595 149.285 137.059C147.148 140.888 142.651 142.347 139.47 145.128C136.261 144.773 132.337 144.323 128.71 143.942C126.589 143.72 124.734 143.904 123.861 142.517C123.28 141.835 122.649 141.203 121.969 140.62C121.428 139.977 120.837 139.383 120.195 138.839C120.101 138.816 120.078 138.721 119.959 138.721C119.378 138.039 118.748 137.405 118.068 136.822C117.525 136.179 116.934 135.587 116.294 135.043C113.178 132.974 110.268 129.846 107.662 126.974C106.7 125.914 104.228 124.165 103.996 122.941C103.877 122.319 104.396 118.983 104.706 118.194C104.922 117.641 105.402 117.324 105.769 117.008C106.213 116.662 106.607 116.266 106.952 115.821C106.952 115.782 106.952 115.742 106.952 115.703C107.435 115.317 107.868 114.883 108.253 114.398C108.555 114.028 108.751 113.553 109.553 113.685C110.855 113.685 112.155 113.685 113.456 113.685C114.205 113.607 115.267 113.842 115.821 113.567C117.354 113.603 118.798 113.548 120.195 113.448C121.691 111.983 122.652 109.98 123.388 107.752C125.964 107.133 128.054 106.028 130.365 105.143C130.957 102.612 131.894 100.428 133.085 98.4982C135.042 97.5919 136.273 95.6725 139.47 96.3624C139.47 96.481 139.47 96.5997 139.47 96.7183C139.196 97.3524 139.43 98.497 139.353 99.3285C139.353 100.238 139.353 101.149 139.353 102.057C140.39 103.113 142.119 103.474 143.492 104.193C144.188 106.856 144.858 109.545 145.383 112.381C144.366 115.517 143.365 119.258 142.309 122.821C141.947 124.039 141.262 125.264 141.244 126.263C141.217 127.77 142.272 129.042 142.546 130.535C142.929 131.018 143.362 131.454 143.846 131.84C144.229 132.324 144.664 132.759 145.146 133.144Z" fill="#F2D8B2"/>
<path fill-rule="evenodd" clip-rule="evenodd" d="M163.476 63.1162C164.604 63.928 165.033 65.8462 166.195 66.669C167.715 67.7458 169.929 67.6423 171.631 68.5639C172.674 69.1278 173.685 70.1478 174.705 70.9325C177.809 73.321 180.925 75.8112 183.807 78.1569C184.686 81.9344 185.654 85.6222 186.525 89.4079C187.989 90.1914 188.943 91.4854 191.49 91.1841C192.317 91.1841 193.145 91.1841 193.972 91.1841C194.448 91.1081 195.228 91.3381 195.509 91.0658C196.257 91.0658 197.006 91.0658 197.754 91.0658C198.582 91.0658 199.409 91.0658 200.236 91.0658C200.713 90.9897 201.494 91.2196 201.773 90.9473C205.184 91.4035 206.233 89.4946 208.274 88.5788C210.246 84.6726 212.331 80.8797 214.42 77.091C215.644 78.6351 216.77 80.4198 218.085 82.302C218.948 83.5364 220.69 86.7085 221.986 87.3944C224.271 88.6038 227.524 88.2231 230.143 89.5262C230.143 90.079 230.143 90.6315 230.143 91.1841C229.866 93.0398 230.103 95.4081 230.025 97.4611C224.336 99.3415 217.041 99.6127 213.002 103.146C212.087 103.965 211.219 104.834 210.401 105.751C209.046 107.788 208.025 110.16 206.738 112.266C203.361 113.409 201.348 114.813 198.818 116.765C198.011 117.389 196.879 117.841 196.455 118.542C195.728 119.74 195.839 121.829 195.155 123.279C194.887 123.842 193.28 125.872 192.791 126.002C191.592 126.323 189.849 125.751 188.416 125.647C186.95 125.543 185.499 125.45 183.924 125.41C180.162 121.245 178.475 115.002 175.533 110.014C173.865 109.667 172.515 108.485 170.569 108.001C167.162 107.155 163.252 107.553 161.112 105.751C161.18 104.279 161.403 102.963 161.585 101.607C162.841 101.246 163.951 100.738 165.131 100.303C165.593 98.4971 166.946 97.263 167.141 95.4476C167.51 92.0049 165.943 89.2853 165.013 86.8023C164.457 85.3206 163.711 83.7586 163.24 82.1834C161.92 77.781 161.449 73.1938 159.93 69.5112C158.785 68.684 157.383 68.116 156.502 67.024C158.05 66.5973 159.616 67.2485 160.758 66.7872C162.214 66.199 162.303 63.9568 163.476 63.1162Z" fill="#F2D8B2"/>
<path fill-rule="evenodd" clip-rule="evenodd" d="M197.717 136.396C198.23 136.396 198.742 136.396 199.255 136.396C200.514 135.642 200.255 133.368 202.689 133.79C202.853 134.059 203.512 133.834 203.873 133.908C206.103 133.887 208.144 134.057 210.265 134.145C210.869 135.87 211.388 137.683 211.922 139.479C217.739 141.517 223.804 143.306 229.207 145.759C228.127 152.231 227.214 157.496 224.352 161.996C223.38 163.525 221.545 164.7 221.037 166.262C220.638 167.495 220.87 168.875 220.683 170.055C220.338 172.21 219.563 174.064 219.143 176.218C214.141 173.67 209.126 169.875 202.689 168.396C201.36 168.09 199.484 168.137 197.835 168.041C193.008 167.757 189.57 168.26 185.405 169.225C184.475 165.533 183.546 161.841 182.564 158.203C184.066 155.758 185.059 152.8 186.47 150.263C187.112 149.721 187.704 149.127 188.247 148.485C188.927 147.902 189.558 147.271 190.14 146.589C191.557 145.36 192.197 143.355 193.218 141.73C193.492 141.332 193.26 140.429 193.336 139.834C193.336 139.162 193.336 138.491 193.336 137.82C193.609 137.538 193.379 136.756 193.455 136.279C193.455 135.686 193.455 135.094 193.455 134.5C194.596 134.977 194.877 136.317 196.533 136.279C196.697 136.548 197.356 136.323 197.717 136.396Z" fill="#F2D8B2"/>
<path fill-rule="evenodd" clip-rule="evenodd" d="M260.921 161.745C261.7 162.348 262.21 163.218 262.813 163.995C263.737 164.094 264.706 164.149 265.765 164.113C267.276 166.581 265.935 170.368 264.939 172.992C264.583 173.93 263.777 175.168 263.876 175.833C264.076 177.2 267.104 178.188 267.655 179.386C268.683 181.315 269.28 183.675 270.49 185.423C271.908 185.898 273.875 185.822 275.571 186.015C276.941 187.406 278.51 188.596 281.123 188.738C280.461 190.231 279.578 191.347 278.642 192.881C278.101 193.767 276.233 196.173 276.398 197.38C276.537 198.389 278.101 198.575 278.406 199.748C278.756 201.089 278.157 201.707 278.406 203.418C280.782 206.877 286.414 207.075 290.573 208.746C291.089 209.02 292.109 208.787 292.82 208.864C293.094 209.692 292.86 211.035 292.937 212.06C290.127 212.903 288.736 214.109 287.975 216.915C287.43 218.927 287.717 221.508 287.03 223.425C286.494 224.923 285.291 225.699 284.669 226.86C283.293 227.496 281.703 227.19 280.767 228.043C280.274 228.496 279.478 230.943 279.114 232.187C278.85 233.095 279.396 234.276 279.233 235.029C279.041 235.912 278.037 236.388 277.579 236.922C276.986 236.999 276.086 236.767 275.689 237.042C273.939 237.231 272.5 236.712 271.437 237.277C270.567 237.74 270.136 239.568 269.664 240.593C269.04 241.949 268.56 243.113 268.009 244.025C266.611 240.582 264.798 237.359 262.813 234.438C262.135 233.438 261.142 232.48 260.803 231.476C259.908 228.822 260.278 225.778 259.267 222.833C257.033 221.128 254.411 219.808 252.18 218.099C251.834 217.064 251.58 215.934 251.235 214.903C250.575 214.143 249.865 213.432 249.107 212.77C246.017 211.819 242.163 211.958 239.302 210.995C238.333 210.668 237.27 209.861 236.23 209.337C233.862 208.145 232.404 207.373 230.56 205.904C229.754 205.261 228.667 204.518 228.197 203.891C227.221 202.586 226.88 200.875 225.953 199.275C225.877 198.759 226.106 197.936 225.835 197.617C225.835 196.946 225.835 196.276 225.835 195.604C225.835 194.815 225.835 194.026 225.835 193.236C225.76 192.8 225.988 192.057 225.716 191.816C225.716 191.106 225.716 190.396 225.716 189.685C225.716 188.896 225.716 188.107 225.716 187.317C225.641 186.879 225.87 186.138 225.599 185.897C225.599 185.699 225.599 185.502 225.599 185.305C226.499 185.467 227.315 185.716 228.433 185.66C228.987 185.66 229.536 185.66 230.087 185.66C230.876 185.66 231.662 185.66 232.451 185.66C232.81 185.586 233.469 185.811 233.632 185.542C234.696 185.542 235.759 185.542 236.821 185.542C237.221 185.467 237.92 185.695 238.12 185.423C240.152 184.92 242.465 184.809 244.501 184.002C246.306 183.287 247.153 181.91 248.28 180.451C250.253 177.901 252.161 175.449 254.07 172.992C255.37 171.32 256.922 169.74 257.849 168.019C259.007 165.879 259.867 163.596 260.921 161.745Z" fill="#F2D8B2"/>
<path fill-rule="evenodd" clip-rule="evenodd" d="M38.2782 160.784C38.9398 159.594 39.4276 158.227 40.283 157.232C41.844 157.395 43.0936 156.61 44.2911 156.877C44.8404 157 45.9951 158.075 46.2945 158.534C46.7636 159.254 47.0255 160.432 47.4732 161.495C48.628 164.232 50.2572 167.79 51.1285 170.257C52.6855 171.832 54.6689 172.512 57.4942 173.098C58.7291 173.355 60.0041 173.783 61.0305 173.692C63.4162 173.479 65.4463 171.735 67.3962 171.205C67.9094 168.968 70.3873 166.828 70.9339 164.81C71.5647 162.479 70.8016 159.667 71.4057 157.588C71.7866 156.27 72.7315 155.59 73.4091 154.509C74.9153 154.615 75.9618 155.181 77.182 155.574C78.4824 155.925 80.594 155.462 81.8971 155.811C83.4501 158.684 84.2613 161.976 85.7876 164.81C86.1925 165.563 87.0599 166.187 87.3192 167.06C87.7255 168.424 87.2858 169.796 87.6734 171.205C85.6005 173.188 83.2149 174.858 81.1887 176.888C81.1887 178.072 81.1887 179.256 81.1887 180.44C80.9148 181.428 81.15 182.926 81.0711 184.111C81.0711 186.085 81.0711 188.057 81.0711 190.031C80.5406 192.971 78.9835 194.881 78.0066 197.372C77.8275 197.667 76.9909 197.3 76.8278 197.609C73.4679 197.736 69.7805 198.288 67.868 196.544C67.2439 194.842 66.724 193.035 66.0998 191.334C65.0774 191.138 63.9307 191.064 62.6811 191.096C62.4793 190.826 61.7817 191.054 61.3847 190.978C60.7953 190.978 60.2059 190.978 59.6152 190.978C57.0411 193.05 54.9429 195.599 52.0708 197.372C51.0885 197.372 50.1061 197.372 49.1238 197.372C48.5718 197.45 47.7125 197.218 47.3556 197.491C46.8839 197.491 46.4121 197.491 45.9416 197.491C45.5287 196.207 45.0863 194.954 44.5263 193.821C42.2904 193.383 39.9943 193.005 37.6888 192.636C38.1513 190.848 40.3551 188.158 40.6358 186.243C41.0488 183.429 40.6358 179.652 40.6358 176.06C40.6358 172.458 41.141 168.53 40.6358 165.757C40.2629 163.708 38.5856 162.191 38.2782 160.784Z" fill="#F2D8B2"/>
<path fill-rule="evenodd" clip-rule="evenodd" d="M82.1845 176.985C83.1093 176.228 84.1358 175.282 85.376 174.26C86.214 173.567 88.176 172.451 88.4486 171.415C88.8148 170.028 87.9862 168.643 88.2134 166.79C86.5281 164.7 85.7329 162.317 84.5488 159.559C83.3686 156.813 81.9573 154.739 82.0656 151.024C85.0406 153.093 87.2391 156.182 90.3411 158.255C91.8326 159.254 93.7264 159.89 95.4237 160.745C100.401 163.255 105.51 166.076 111.145 167.739C112.126 172.485 112.301 177.34 114.1 181.016C115.379 183.629 117.909 184.751 120.129 186.351C120.129 186.39 120.129 186.43 120.129 186.469C117.78 190.161 115.514 193.933 113.746 198.205C113.768 203.208 112.771 207.186 111.145 210.534C108.949 211.138 105.814 211.141 103.934 212.075C103.237 212.423 100.77 214.638 100.506 215.276C99.786 217.018 100.375 219.361 99.5615 221.439C98.9667 221.475 98.6273 221.769 98.1421 221.913C96.5023 220.911 94.9533 219.818 93.415 218.713C93.415 218.436 93.415 218.161 93.415 217.884C93.3401 217.483 93.566 216.781 93.296 216.58C93.296 215.948 93.296 215.315 93.296 214.684C93.2212 214.283 93.4484 213.582 93.1784 213.377C93.1784 212.707 93.1784 212.036 93.1784 211.363C93.1036 210.965 93.3308 210.263 93.0595 210.059C93.6622 207.464 91.6936 207.11 91.1683 205.555C90.6097 203.899 90.6912 201.865 90.2235 199.983C89.761 198.129 89.3267 196.355 88.9231 194.649C86.6885 193.254 84.3175 191.997 82.0669 190.618C82.0669 188.604 82.0669 186.588 82.0669 184.573C82.0669 182.833 82.0669 181.095 82.0669 179.357C82.3395 178.801 82.107 177.738 82.1845 176.985ZM132.303 183.506C127.374 177.899 122.299 172.439 114.808 169.399C115.297 173.058 115.883 176.62 117.055 179.593C118.401 180.806 120.127 183.077 122.018 183.624C124.423 184.318 127.041 183.794 130.057 183.861C130.468 183.459 132.463 184.094 132.303 183.506Z" fill="#F2D8B2"/>
<path fill-rule="evenodd" clip-rule="evenodd" d="M165.228 151.931C167.27 153.307 167.995 155.996 171.95 155.369C172.19 155.641 172.929 155.412 173.365 155.487C174.073 155.487 174.78 155.487 175.489 155.487C175.729 155.759 176.468 155.53 176.904 155.607C178.823 156.364 180.373 157.492 181.974 158.571C182.673 162.296 184.017 166.001 184.569 169.48C180.412 172.052 176.735 176.159 173.13 180.152C170.396 183.177 167.651 185.572 164.757 188.333C163.007 190.004 162.196 191.161 159.568 191.417C156.529 191.713 150.98 191.812 148.719 190.943C147.351 190.417 146.169 188.671 145.181 187.504C144.053 186.169 142.96 184.986 141.998 183.709C141.519 182.885 140.78 182.323 140.11 181.693C139.595 181.541 139.369 181.096 139.049 180.745C138.588 180.182 138.076 179.667 137.516 179.204C137.094 178.68 136.622 178.205 136.101 177.78C134.807 176.511 133.657 175.1 132.446 173.748C138.544 167.825 145.083 162.346 147.186 152.405C150.445 152.243 153.435 151.81 156.739 151.694C157.407 151.694 158.075 151.694 158.744 151.694C159.296 151.617 160.155 151.849 160.512 151.574C161.298 151.574 162.085 151.574 162.871 151.574C163.715 151.633 164.886 151.364 165.228 151.931Z" fill="#F2D8B2"/>
</g>
</g>
<defs>
<filter id="filter0_d_317_514" x="-5.5" y="-2.5" width="322" height="290" filterUnits="userSpaceOnUse" color-interpolation-filters="sRGB">
<feFlood flood-opacity="0" result="BackgroundImageFix"/>
<feColorMatrix in="SourceAlpha" type="matrix" values="0 0 0 0 0 0 0 0 0 0 0 0 0 0 0 0 0 0 127 0" result="hardAlpha"/>
<feOffset dy="3"/>
<feGaussianBlur stdDeviation="2.75"/>
<feComposite in2="hardAlpha" operator="out"/>
<feColorMatrix type="matrix" values="0 0 0 0 0 0 0 0 0 0 0 0 0 0 0 0 0 0 0.07 0"/>
<feBlend mode="normal" in2="BackgroundImageFix" result="effect1_dropShadow_317_514"/>
<feBlend mode="normal" in="SourceGraphic" in2="effect1_dropShadow_317_514" result="shape"/>
</filter>
</defs>
</svg>
