<svg xmlns="http://www.w3.org/2000/svg" width="4" height="12" viewBox="0 0 4 12" fill="none">
  <path d="M1.56266 7.64041C0.699794 7.64041 6.67572e-05 6.90579 6.67572e-05 5.99989C6.67572e-05 5.094 0.699794 4.35938 1.56266 4.35938C2.42552 4.35938 3.12524 5.094 3.12524 5.99989C3.12524 6.90579 2.42552 7.64041 1.56266 7.64041Z" fill="#BDAF74"/>
  <path d="M1.56266 11.9998C0.699794 11.9998 6.67572e-05 11.2652 6.67572e-05 10.3593C6.67572e-05 9.45337 0.699794 8.71875 1.56266 8.71875C2.42552 8.71875 3.12524 9.45337 3.12524 10.3593C3.12524 11.2652 2.42552 11.9998 1.56266 11.9998Z" fill="#BDAF74"/>
  <path d="M1.56266 3.28104C0.699794 3.28104 6.67572e-05 2.54655 6.67572e-05 1.64052C6.67572e-05 0.734493 0.699794 0 1.56266 0C2.42552 0 3.12524 0.734493 3.12524 1.64052C3.12524 2.54655 2.42552 3.28104 1.56266 3.28104Z" fill="#BDAF74"/>
</svg>